<svg width="24" height="24" viewBox="0 0 24 24" fill="none" xmlns="http://www.w3.org/2000/svg">
<g id="shopping-bag 1">
<g id="Group">
<g id="Group_2">
<path id="Vector" d="M19.7341 23H4.26606C3.98244 23.0001 3.70206 22.9398 3.44351 22.8232C3.18496 22.7066 2.95416 22.5364 2.76644 22.3238C2.57871 22.1112 2.43835 21.8611 2.35467 21.5901C2.27098 21.3191 2.24589 21.0334 2.28106 20.752L4.00006 7H20.0001L21.7191 20.752C21.7542 21.0334 21.7291 21.3191 21.6455 21.5901C21.5618 21.8611 21.4214 22.1112 21.2337 22.3238C21.046 22.5364 20.8152 22.7066 20.5566 22.8232C20.2981 22.9398 20.0177 23.0001 19.7341 23Z" stroke="white" stroke-width="2" stroke-miterlimit="10" stroke-linecap="square"/>
<path id="Vector_2" d="M8 10V5C8.00343 3.94019 8.42596 2.92476 9.17536 2.17536C9.92476 1.42596 10.9402 1.00343 12 1C13.0598 1.00343 14.0752 1.42596 14.8246 2.17536C15.574 2.92476 15.9966 3.94019 16 5V10" stroke="white" stroke-width="2" stroke-miterlimit="10" stroke-linecap="square"/>
</g>
</g>
</g>
</svg>
