<svg width="17" height="18" viewBox="0 0 17 18" fill="none" xmlns="http://www.w3.org/2000/svg">
<g id="shopping-cart-2 1">
<g id="Group">
<path id="Vector" d="M1.5 1.5H3.5V10C3.5 10.828 4.172 11.5 5 11.5H15.5" stroke="#6176F4" stroke-width="1.5" stroke-linecap="round" stroke-linejoin="round"/>
<path id="Vector_2" d="M5 16.5C5.82843 16.5 6.5 15.8284 6.5 15C6.5 14.1716 5.82843 13.5 5 13.5C4.17157 13.5 3.5 14.1716 3.5 15C3.5 15.8284 4.17157 16.5 5 16.5Z" stroke="#6176F4" stroke-width="1.5" stroke-linecap="round" stroke-linejoin="round"/>
<path id="Vector_3" d="M14 16.5C14.8284 16.5 15.5 15.8284 15.5 15C15.5 14.1716 14.8284 13.5 14 13.5C13.1716 13.5 12.5 14.1716 12.5 15C12.5 15.8284 13.1716 16.5 14 16.5Z" stroke="#6176F4" stroke-width="1.5" stroke-linecap="round" stroke-linejoin="round"/>
<path id="Vector_4" d="M3.5 8.5H13.5L15.5 3.5H3.5" stroke="#6176F4" stroke-width="1.5" stroke-linecap="round" stroke-linejoin="round"/>
</g>
</g>
</svg>
