<svg width="24" height="24" viewBox="0 0 24 24" fill="none" xmlns="http://www.w3.org/2000/svg">
<g id="c-check 2" clip-path="url(#clip0_133_13802)">
<g id="Group">
<g id="Group_2">
<path id="Vector" d="M17.0095 8.10289C16.94 8.03068 16.8574 7.97336 16.7663 7.93425C16.6753 7.89514 16.5776 7.875 16.479 7.875C16.3804 7.875 16.2827 7.89514 16.1917 7.93425C16.1006 7.97336 16.018 8.03068 15.9486 8.10289L10.3825 13.8503L8.04396 11.4311C7.97185 11.3593 7.88672 11.3028 7.79344 11.2649C7.70016 11.227 7.60055 11.2084 7.5003 11.2102C7.40005 11.212 7.30112 11.2341 7.20917 11.2753C7.11721 11.3166 7.03403 11.376 6.96437 11.4504C6.89471 11.5248 6.83993 11.6125 6.80317 11.7087C6.76641 11.8049 6.74838 11.9076 6.75011 12.011C6.75185 12.1144 6.77331 12.2164 6.81328 12.3112C6.85324 12.4061 6.91093 12.4918 6.98305 12.5637L9.85201 15.5221C9.92146 15.5943 10.0041 15.6516 10.0951 15.6907C10.1862 15.7299 10.2838 15.75 10.3825 15.75C10.4811 15.75 10.5788 15.7299 10.6698 15.6907C10.7608 15.6516 10.8435 15.5943 10.9129 15.5221L17.0095 9.23542C17.0853 9.16328 17.1458 9.07571 17.1872 8.97826C17.2286 8.8808 17.25 8.77555 17.25 8.66916C17.25 8.56276 17.2286 8.45751 17.1872 8.36006C17.1458 8.2626 17.0853 8.17504 17.0095 8.10289Z" fill="white"/>
<path id="Vector_2" d="M12 23C18.0751 23 23 18.0751 23 12C23 5.92487 18.0751 1 12 1C5.92487 1 1 5.92487 1 12C1 18.0751 5.92487 23 12 23Z" stroke="white" stroke-width="1.5" stroke-miterlimit="10" stroke-linecap="square"/>
</g>
</g>
</g>
<defs>
<clipPath id="clip0_133_13802">
<rect width="24" height="24" fill="white"/>
</clipPath>
</defs>
</svg>
