<svg width="24" height="24" viewBox="0 0 24 24" fill="none" xmlns="http://www.w3.org/2000/svg">
<g id="menu-dots 1">
<g id="Group">
<path id="Vector" d="M10 11C10 12.1046 10.8954 13 12 13C13.1046 13 14 12.1046 14 11C14 9.89543 13.1046 9 12 9C10.8954 9 10 9.89543 10 11Z" fill="#212121"/>
<path id="Vector_2" d="M10 3C10 4.10457 10.8954 5 12 5C13.1046 5 14 4.10457 14 3C14 1.89543 13.1046 1 12 1C10.8954 1 10 1.89543 10 3Z" fill="#212121"/>
<path id="Vector_3" d="M10 19C10 20.1046 10.8954 21 12 21C13.1046 21 14 20.1046 14 19C14 17.8954 13.1046 17 12 17C10.8954 17 10 17.8954 10 19Z" fill="#212121"/>
</g>
</g>
</svg>
