<svg width="18" height="18" viewBox="0 0 18 18" fill="none" xmlns="http://www.w3.org/2000/svg">
<g id="calendar-2 3">
<g id="Group">
<path id="Vector" d="M6.5 4.5H3C2.60218 4.5 2.22064 4.65804 1.93934 4.93934C1.65804 5.22064 1.5 5.60218 1.5 6V15C1.5 15.3978 1.65804 15.7794 1.93934 16.0607C2.22064 16.342 2.60218 16.5 3 16.5H13C13.3978 16.5 13.7794 16.342 14.0607 16.0607C14.342 15.7794 14.5 15.3978 14.5 15V11.5" stroke="#6176F4" stroke-width="1.5" stroke-linecap="round" stroke-linejoin="round"/>
<path id="Vector_2" d="M12.5 1.5L16.5 5.5L12.5 9.5" stroke="#6176F4" stroke-width="1.5" stroke-linecap="round" stroke-linejoin="round"/>
<path id="Vector_3" d="M16.5 5.5H11.5C10.4391 5.5 9.42172 5.92143 8.67157 6.67157C7.92143 7.42172 7.5 8.43913 7.5 9.5V11.5" stroke="#6176F4" stroke-width="1.5" stroke-linecap="round" stroke-linejoin="round"/>
</g>
</g>
</svg>
