<svg width="16" height="18" viewBox="0 0 16 18" fill="none" xmlns="http://www.w3.org/2000/svg">
<g id="fuel-electric 4">
<g id="Group">
<path id="Vector" d="M1.5 11.5V14.5C1.5 15.0304 1.71071 15.5391 2.08579 15.9142C2.46086 16.2893 2.96957 16.5 3.5 16.5H7.5C8.03043 16.5 8.53914 16.2893 8.91421 15.9142C9.28929 15.5391 9.5 15.0304 9.5 14.5V12.5" stroke="#606060" stroke-width="1.5" stroke-linecap="round" stroke-linejoin="round"/>
<path id="Vector_2" d="M4.5 4.5H14.5V7.5C14.5 8.15661 14.3707 8.80679 14.1194 9.41342C13.8681 10.02 13.4998 10.5712 13.0355 11.0355C12.5712 11.4998 12.02 11.8681 11.4134 12.1194C10.8068 12.3707 10.1566 12.5 9.5 12.5C8.17392 12.5 6.90215 11.9732 5.96447 11.0355C5.02678 10.0979 4.5 8.82608 4.5 7.5V4.5Z" stroke="#606060" stroke-width="1.5" stroke-linecap="round" stroke-linejoin="round"/>
<path id="Vector_3" d="M6.5 1.5V4.5" stroke="#606060" stroke-width="1.5" stroke-linecap="round" stroke-linejoin="round"/>
<path id="Vector_4" d="M12.5 1.5V4.5" stroke="#606060" stroke-width="1.5" stroke-linecap="round" stroke-linejoin="round"/>
</g>
</g>
</svg>
