<svg width="16" height="16" viewBox="0 0 16 16" fill="none" xmlns="http://www.w3.org/2000/svg">
<g clip-path="url(#clip0_25_24)">
<path d="M15.428 4.86601L14.428 3.13401C14.366 3.02674 14.2665 2.94629 14.1486 2.90823C14.0308 2.87017 13.903 2.87722 13.79 2.92801L11.65 3.89401C11.0928 3.39635 10.4398 3.01792 9.73099 2.78201L9.49999 0.450006C9.48755 0.326245 9.42943 0.211562 9.33698 0.128353C9.24452 0.0451438 9.12437 -0.000617045 8.99999 6.28516e-06H6.99999C6.8756 -0.000617045 6.75545 0.0451438 6.663 0.128353C6.57054 0.211562 6.51242 0.326245 6.49999 0.450006L6.26899 2.78201C5.56018 3.01792 4.90712 3.39635 4.34999 3.89401L2.20999 2.92801C2.09701 2.87722 1.96921 2.87017 1.85134 2.90823C1.73347 2.94629 1.63393 3.02674 1.57199 3.13401L0.571986 4.86601C0.509968 4.97337 0.490054 5.09995 0.516109 5.22117C0.542164 5.34239 0.61233 5.44961 0.712986 5.52201L2.61299 6.88801C2.46232 7.62168 2.46232 8.37833 2.61299 9.11201L0.712986 10.478C0.61233 10.5504 0.542164 10.6576 0.516109 10.7788C0.490054 10.9001 0.509968 11.0266 0.571986 11.134L1.57199 12.866C1.61587 12.942 1.67899 13.0051 1.75499 13.049C1.831 13.0929 1.91722 13.116 2.00499 13.116C2.07566 13.116 2.14553 13.101 2.20999 13.072L4.34999 12.106C4.90712 12.6037 5.56018 12.9821 6.26899 13.218L6.49999 15.55C6.51242 15.6738 6.57054 15.7885 6.663 15.8717C6.75545 15.9549 6.8756 16.0006 6.99999 16H8.99999C9.12437 16.0006 9.24452 15.9549 9.33698 15.8717C9.42943 15.7885 9.48755 15.6738 9.49999 15.55L9.73299 13.218C10.4418 12.9821 11.0949 12.6037 11.652 12.106L13.792 13.072C13.8564 13.101 13.9263 13.116 13.997 13.116C14.0848 13.116 14.171 13.0929 14.247 13.049C14.323 13.0051 14.3861 12.942 14.43 12.866L15.43 11.134C15.492 11.0266 15.5119 10.9001 15.4859 10.7788C15.4598 10.6576 15.3896 10.5504 15.289 10.478L13.389 9.11201C13.5397 8.37833 13.5397 7.62168 13.389 6.88801L15.289 5.52201C15.3893 5.44931 15.4591 5.34196 15.4848 5.22076C15.5104 5.09956 15.4902 4.97314 15.428 4.86601ZM7.99999 10C7.60442 10 7.21774 9.88271 6.88885 9.66295C6.55995 9.44318 6.3036 9.13083 6.15223 8.76537C6.00085 8.39992 5.96124 7.99779 6.03842 7.60983C6.11559 7.22186 6.30607 6.8655 6.58577 6.58579C6.86548 6.30609 7.22184 6.11561 7.60981 6.03844C7.99777 5.96127 8.3999 6.00087 8.76535 6.15225C9.13081 6.30362 9.44316 6.55997 9.66293 6.88887C9.88269 7.21776 9.99999 7.60444 9.99999 8.00001C9.99999 8.53044 9.78927 9.03915 9.4142 9.41422C9.03913 9.78929 8.53042 10 7.99999 10Z" fill="white"/>
</g>
<defs>
<clipPath id="clip0_25_24">
<rect width="16" height="16" fill="white"/>
</clipPath>
</defs>
</svg>
