<svg width="144" height="32" viewBox="0 0 144 32" fill="none" xmlns="http://www.w3.org/2000/svg">
<path fill-rule="evenodd" clip-rule="evenodd" d="M12.2533 22.8164L18.319 6.95175H13.9077L9.29422 20.6202L4.57976 6.95175L0 6.98533L6.12495 22.8195C6.61427 24.0845 7.83365 24.9188 9.19319 24.9188C10.5517 24.9188 11.7692 24.0824 12.2533 22.8164ZM28.0847 25.0868C29.948 25.0868 31.5925 24.7061 33.018 23.9449C34.4436 23.1837 35.5549 22.109 36.3518 20.7209C37.1488 19.3328 37.5473 17.732 37.5473 15.9185C37.5473 14.1274 37.1488 12.5434 36.3518 11.1665C35.5549 9.78954 34.4436 8.72047 33.018 7.95925C31.5925 7.19803 29.948 6.81742 28.0847 6.81742C26.1989 6.81742 24.5376 7.19803 23.1008 7.95925C21.6641 8.72047 20.5472 9.78954 19.7502 11.1665C18.9532 12.5434 18.5548 14.1274 18.5548 15.9185C18.5548 17.732 18.9532 19.3328 19.7502 20.7209C20.5472 22.109 21.6641 23.1837 23.1008 23.9449C24.5376 24.7061 26.1989 25.0868 28.0847 25.0868ZM28.0847 21.4262C26.5581 21.4262 25.3234 20.9224 24.3805 19.9149C23.4376 18.9074 22.9661 17.5977 22.9661 15.9857C22.9661 14.3737 23.4376 13.0639 24.3805 12.0564C25.3234 11.0489 26.5581 10.5452 28.0847 10.5452C29.5664 10.5452 30.7787 11.0489 31.7216 12.0564C32.6645 13.0639 33.1359 14.3737 33.1359 15.9857C33.1359 17.5977 32.6645 18.9074 31.7216 19.9149C30.7787 20.9224 29.5664 21.4262 28.0847 21.4262ZM45.8986 22.7359V0H41.5209V22.7359C41.5209 23.9415 42.5009 24.9188 43.7098 24.9188C44.9186 24.9188 45.8986 23.9415 45.8986 22.7359ZM57.5501 25.1203C59.1215 25.1203 60.6257 24.6838 62.0625 23.8106L61.0522 20.5194C60.0195 21.012 59.1664 21.2582 58.493 21.2582C57.8644 21.2582 57.3929 21.0847 57.0786 20.7377C56.7643 20.3907 56.6072 19.803 56.6072 18.9746V10.881H59.7088V7.69058H56.6072V2.75383H52.2631V7.69058H49.7039L49.7375 10.881H52.2631V19.747C52.2631 21.5157 52.757 22.8535 53.7448 23.7602C54.7326 24.667 56.001 25.1203 57.5501 25.1203ZM70.3128 25.1203C71.5924 25.1203 72.7261 24.9188 73.7139 24.5158C74.7017 24.1128 75.5099 23.5195 76.1385 22.7359V22.7695C76.1385 23.9565 77.1034 24.9188 78.2937 24.9188C79.4806 24.9188 80.4427 23.9593 80.4427 22.7756C80.4427 22.7736 80.4427 22.7716 80.4427 22.7695L80.4152 13.1647C80.3927 11.1497 79.7361 9.58244 78.4452 8.463C77.1544 7.34356 75.3415 6.78383 73.0068 6.78383C71.4577 6.78383 70.1051 6.95735 68.9489 7.30438C67.7928 7.6514 66.5075 8.21672 65.0932 9.00033L66.6759 12.0228C68.5392 10.9034 70.324 10.3437 72.0302 10.3437C73.3547 10.3437 74.365 10.6347 75.0609 11.2168C75.7569 11.7989 76.1048 12.6161 76.1048 13.6684V14.1386H70.8516C68.6739 14.161 66.9902 14.6479 65.8004 15.5995C64.6105 16.551 64.0156 17.8663 64.0156 19.5455C64.0156 20.5978 64.2738 21.5493 64.7901 22.4001C65.3065 23.2509 66.0417 23.9169 66.9958 24.3983C67.9499 24.8797 69.0556 25.1203 70.3128 25.1203ZM71.3567 21.762C70.3689 21.762 69.5888 21.5381 69.0163 21.0903C68.4438 20.6426 68.1576 20.0381 68.1576 19.2768C68.1576 18.4932 68.4326 17.9279 68.9826 17.5809C69.5326 17.2338 70.3913 17.0603 71.5587 17.0603H76.1048V18.6723C75.9926 19.5455 75.4875 20.2787 74.5895 20.872C73.6915 21.4653 72.6139 21.762 71.3567 21.762ZM90.1809 25.1203C91.4605 25.1203 92.5942 24.9188 93.582 24.5158C94.5698 24.1128 95.378 23.5195 96.0066 22.7359V22.7695C96.0066 23.9565 96.9715 24.9188 98.1618 24.9188C99.3486 24.9188 100.311 23.9593 100.311 22.7756C100.311 22.7736 100.311 22.7716 100.311 22.7695L100.283 13.1647C100.261 11.1497 99.6041 9.58244 98.3133 8.463C97.0224 7.34356 95.2096 6.78383 92.8748 6.78383C91.3258 6.78383 89.9732 6.95735 88.817 7.30438C87.6609 7.6514 86.3756 8.21672 84.9613 9.00033L86.544 12.0228C88.4073 10.9034 90.1921 10.3437 91.8983 10.3437C93.2228 10.3437 94.233 10.6347 94.929 11.2168C95.6249 11.7989 95.9729 12.6161 95.9729 13.6684V14.1386H90.7196C88.542 14.161 86.8583 14.6479 85.6684 15.5995C84.4786 16.551 83.8837 17.8663 83.8837 19.5455C83.8837 20.5978 84.1419 21.5493 84.6582 22.4001C85.1745 23.2509 85.9098 23.9169 86.8639 24.3983C87.818 24.8797 88.9237 25.1203 90.1809 25.1203ZM91.2248 21.762C90.237 21.762 89.4568 21.5381 88.8844 21.0903C88.3119 20.6426 88.0257 20.0381 88.0257 19.2768C88.0257 18.4932 88.3007 17.9279 88.8507 17.5809C89.4007 17.2338 90.2594 17.0603 91.4268 17.0603H95.9729V18.6723C95.8606 19.5455 95.3555 20.2787 94.4575 20.872C93.5595 21.4653 92.4819 21.762 91.2248 21.762ZM112.271 31.6019C114.157 31.6019 115.813 31.2605 117.238 30.5776C118.664 29.8948 119.764 28.9208 120.539 27.6559C121.313 26.3909 121.7 24.9076 121.7 23.2061V6.95175H117.323V9.63842C116.717 8.74286 115.925 8.04881 114.949 7.55625C113.972 7.06369 112.855 6.81742 111.598 6.81742C110.026 6.81742 108.635 7.17564 107.422 7.89208C106.21 8.60853 105.267 9.61043 104.594 10.8978C103.92 12.1852 103.583 13.6684 103.583 15.3476C103.583 17.0491 103.92 18.5548 104.594 19.8645C105.267 21.1743 106.21 22.193 107.422 22.9206C108.635 23.6483 110.026 24.0121 111.598 24.0121C112.878 24.0121 114 23.7714 114.965 23.29C115.931 22.8087 116.717 22.109 117.323 21.1911V23.3068C117.323 24.7397 116.846 25.8704 115.891 26.6987C114.937 27.5271 113.652 27.9413 112.036 27.9413C109.993 27.9413 108.118 27.3144 106.412 26.0607L104.661 29.2175C106.996 30.8071 109.533 31.6019 112.271 31.6019ZM112.541 20.5866C111.127 20.5866 109.976 20.1108 109.089 19.1593C108.202 18.2078 107.748 16.9708 107.725 15.4483C107.748 13.9483 108.202 12.7169 109.089 11.7542C109.976 10.7914 111.127 10.3101 112.541 10.3101C113.955 10.3101 115.106 10.7858 115.992 11.7374C116.879 12.6889 117.323 13.9259 117.323 15.4483C117.323 16.9708 116.879 18.2078 115.992 19.1593C115.106 20.1108 113.955 20.5866 112.541 20.5866ZM136.822 24.6842C138.34 24.2786 139.652 23.6497 140.76 22.7975C141.867 21.9452 142.727 20.9275 143.338 19.7441L140.425 17.9845C139.987 18.7739 139.406 19.4449 138.683 19.9974C137.96 20.5499 137.153 20.9449 136.264 21.1825C134.985 21.5244 133.812 21.4613 132.745 20.9931C131.678 20.5249 130.837 19.7122 130.224 18.5548L143.073 15.1215C143.019 14.8346 142.916 14.41 142.765 13.8477C141.998 10.9931 140.703 8.96326 138.881 7.75832C137.058 6.55338 134.758 6.32176 131.983 7.06348C130.27 7.52126 128.841 8.30283 127.697 9.4082C126.553 10.5136 125.787 11.8366 125.399 13.3773C125.011 14.9181 125.05 16.5535 125.515 18.2836C125.98 20.0136 126.759 21.4452 127.854 22.5781C128.949 23.7111 130.272 24.4642 131.825 24.8373C133.378 25.2104 135.044 25.1594 136.822 24.6842ZM138.476 13.325L129.369 15.7587C129.215 14.409 129.456 13.2496 130.09 12.2804C130.724 11.3112 131.66 10.6614 132.896 10.3311C134.218 9.97766 135.383 10.0722 136.388 10.6147C137.394 11.1572 138.09 12.0606 138.476 13.325Z" fill="white"/>
</svg>
