<svg width="16" height="16" viewBox="0 0 16 16" fill="none" xmlns="http://www.w3.org/2000/svg">
<path d="M11.5 5C10.122 5 9 3.878 9 2.5C9 1.122 10.122 0 11.5 0C12.878 0 14 1.122 14 2.5C14 3.878 12.878 5 11.5 5Z" fill="#1C1E21"/>
<path d="M11.5 6C10.544 6 9.66001 6.305 8.93101 6.815C8.96601 7.04 9.00001 7.266 9.00001 7.5C9.00001 8.48 8.67701 9.38 8.14301 10.12C8.52001 10.376 8.86501 10.673 9.17901 11H15.5C15.776 11 16 10.776 16 10.5C16 8.019 13.981 6 11.5 6Z" fill="#1C1E21"/>
<path d="M8.5 16H0.5C0.224 16 0 15.776 0 15.5C0 13.019 2.019 11 4.5 11C6.981 11 9 13.019 9 15.5C9 15.776 8.776 16 8.5 16Z" fill="#1C1E21"/>
<path d="M4.5 10C3.122 10 2 8.878 2 7.5C2 6.122 3.122 5 4.5 5C5.878 5 7 6.122 7 7.5C7 8.878 5.878 10 4.5 10Z" fill="#1C1E21"/>
</svg>
