<svg width="130" height="130" viewBox="0 0 130 130" fill="none" xmlns="http://www.w3.org/2000/svg">
<circle cx="65" cy="65" r="65" fill="black"/>
<g clip-path="url(#clip0_133_10521)">
<path d="M69.6665 69.6667H60.3332C55.3842 69.6723 50.6395 71.6408 47.14 75.1402C43.6405 78.6397 41.6721 83.3844 41.6665 88.3334C41.6662 88.8281 41.8231 89.3101 42.1146 89.7098C42.4061 90.1095 42.817 90.4062 43.2882 90.5571C50.3741 92.3904 57.6837 93.2128 64.9998 93.0001C72.316 93.2128 79.6255 92.3904 86.7115 90.5571C87.1826 90.4062 87.5936 90.1095 87.8851 89.7098C88.1766 89.3101 88.3335 88.8281 88.3332 88.3334C88.3276 83.3844 86.3592 78.6397 82.8597 75.1402C79.3602 71.6408 74.6155 69.6723 69.6665 69.6667Z" fill="white"/>
<path d="M64.9998 64.9997C72.2332 64.9997 77.8332 56.9031 77.8332 49.9381C77.8332 46.5345 76.4811 43.2702 74.0744 40.8635C71.6677 38.4568 68.4034 37.1047 64.9998 37.1047C61.5962 37.1047 58.332 38.4568 55.9253 40.8635C53.5186 43.2702 52.1665 46.5345 52.1665 49.9381C52.1665 56.9031 57.7665 64.9997 64.9998 64.9997Z" fill="white"/>
</g>
<defs>
<clipPath id="clip0_133_10521">
<rect width="56" height="56" fill="white" transform="translate(37 37)"/>
</clipPath>
</defs>
</svg>
