<svg width="18" height="18" viewBox="0 0 18 18" fill="none" xmlns="http://www.w3.org/2000/svg">
<g id="team 1">
<g id="Group">
<path id="Vector" d="M5.5 5C5.5 4.17157 4.82843 3.5 4 3.5C3.17157 3.5 2.5 4.17157 2.5 5C2.5 5.82843 3.17157 6.5 4 6.5C4.82843 6.5 5.5 5.82843 5.5 5Z" stroke="#606060" stroke-width="1.5" stroke-linecap="round" stroke-linejoin="round"/>
<path id="Vector_2" d="M4.5 15.5H2.5V12.5H1.5V9.5C1.5 9.23478 1.60536 8.98043 1.79289 8.79289C1.98043 8.60536 2.23478 8.5 2.5 8.5H3.5" stroke="#606060" stroke-width="1.5" stroke-linecap="round" stroke-linejoin="round"/>
<path id="Vector_3" d="M12.5 5C12.5 5.82843 13.1716 6.5 14 6.5C14.8284 6.5 15.5 5.82843 15.5 5C15.5 4.17157 14.8284 3.5 14 3.5C13.1716 3.5 12.5 4.17157 12.5 5Z" stroke="#606060" stroke-width="1.5" stroke-linecap="round" stroke-linejoin="round"/>
<path id="Vector_4" d="M13.5 15.5H15.5V12.5H16.5V9.5C16.5 9.23478 16.3946 8.98043 16.2071 8.79289C16.0196 8.60536 15.7652 8.5 15.5 8.5H14.5" stroke="#606060" stroke-width="1.5" stroke-linecap="round" stroke-linejoin="round"/>
<path id="Vector_5" d="M11 3.5C11 2.39543 10.1046 1.5 9 1.5C7.89543 1.5 7 2.39543 7 3.5C7 4.60457 7.89543 5.5 9 5.5C10.1046 5.5 11 4.60457 11 3.5Z" stroke="#606060" stroke-width="1.5" stroke-linecap="round" stroke-linejoin="round"/>
<path id="Vector_6" d="M11.5 16.5H6.5V12.5H5.5V9.5C5.5 8.96957 5.71071 8.46086 6.08579 8.08579C6.46086 7.71071 6.96957 7.5 7.5 7.5H10.5C11.0304 7.5 11.5391 7.71071 11.9142 8.08579C12.2893 8.46086 12.5 8.96957 12.5 9.5V12.5H11.5V16.5Z" stroke="#606060" stroke-width="1.5" stroke-linecap="round" stroke-linejoin="round"/>
</g>
</g>
</svg>
