<svg width="24" height="24" viewBox="0 0 24 24" fill="none" xmlns="http://www.w3.org/2000/svg">
<g id="settings 2" clip-path="url(#clip0_133_9150)">
<g id="Group">
<g id="Group_2">
<path id="Vector" d="M14 19L16.95 21.95C17.2717 22.2783 17.655 22.5401 18.0778 22.7203C18.5007 22.9005 18.955 22.9957 19.4146 23.0003C19.8743 23.005 20.3304 22.919 20.7568 22.7474C21.1833 22.5757 21.5717 22.3218 21.9 22L21.951 21.949C22.6137 21.2992 22.9911 20.4127 23.0003 19.4846C23.0095 18.5566 22.6497 17.6628 22 17L21.949 16.949L20 15" stroke="white" stroke-width="2" stroke-miterlimit="10" stroke-linecap="square"/>
<path id="Vector_2" d="M11.4911 8.86515L4.20313 1.57715L1.66113 4.11915L8.77913 11.2371" stroke="white" stroke-width="2" stroke-miterlimit="10"/>
<path id="Vector_3" d="M22.6781 4.92162L19.6001 7.98662L16.0001 4.41062L19.0801 1.34462C18.3697 1.03668 17.5881 0.930457 16.8211 1.03762C15.3982 1.15985 14.0753 1.81972 13.1217 2.88293C12.1681 3.94615 11.6554 5.33279 11.6881 6.76062C11.6821 7.32227 11.7882 7.87947 12.0001 8.39962L2.14515 17.0826C1.4685 17.6862 1.05929 18.5337 1.00753 19.439C0.955775 20.3442 1.2657 21.2329 1.86915 21.9096C1.89215 21.9366 1.91615 21.9616 1.94015 21.9876C2.23866 22.2994 2.59567 22.5493 2.99079 22.7231C3.38591 22.8968 3.81139 22.991 4.24293 23.0003C4.67447 23.0096 5.10361 22.9338 5.50584 22.7772C5.90807 22.6206 6.2755 22.3863 6.58715 22.0876C6.68708 21.9937 6.78094 21.8935 6.86815 21.7876L15.5941 11.9776C16.5267 12.2515 17.5076 12.3197 18.4691 12.1776C19.4823 11.9682 20.4192 11.4864 21.1788 10.784C21.9385 10.0816 22.4921 9.18531 22.7801 8.19162C23.1071 7.12012 23.0712 5.97067 22.6781 4.92162Z" stroke="white" stroke-width="2" stroke-miterlimit="10" stroke-linecap="square"/>
</g>
</g>
</g>
<defs>
<clipPath id="clip0_133_9150">
<rect width="24" height="24" fill="white"/>
</clipPath>
</defs>
</svg>
